# xmcd
#
# Track frame offsets: 
#        150
#        19533
#        35590
#        50602
#        66039
#        81406
#        99413
#        116083
#        133246
#        157695
#        161836
#        176545
#
# Disc length: 2591 seconds
#
# Revision: 0
# Processed by: cddbd v1.5.1PL2 Copyright (c) Steve Scherf et al.
# Submitted via: ExactAudioCopy v0.95a5
#
DISCID=9a0a1d0c
DTITLE=Randy Weeks - Sold Out At The Cinema
DYEAR=2004
DGENRE=Indie
TTITLE0=Miles Away
TTITLE1=We Go 'Round In Circles
TTITLE2=Big Man Make The Little Girl Cry
TTITLE3=When I Get Over You
TTITLE4=I'd Walk A Thousand Miles
TTITLE5=Another Sunny Day
TTITLE6=This Is The Last Time
TTITLE7=What Am I Supposed To Do (About You)
TTITLE8=Ton Of Shame
TTITLE9=Untitled
TTITLE10=Take It Or Leave It
TTITLE11=Linoleum
EXTD=
EXTT0=
EXTT1=
EXTT2=
EXTT3=
EXTT4=
EXTT5=
EXTT6=
EXTT7=
EXTT8=
EXTT9=
EXTT10=
EXTT11=
PLAYORDER=
